<svg width="16" height="16" viewBox="0 0 16 16" fill="none" xmlns="http://www.w3.org/2000/svg">
<rect width="16" height="16" rx="8" fill="white"/>
<path d="M4.608 8.04852C4.608 9.16982 4.672 10.0997 4.8 10.8383C4.928 11.5768 5.13067 12.1644 5.408 12.6011C5.68533 13.0377 6.04 13.3423 6.472 13.5148C6.904 13.6873 7.41866 13.7736 8.016 13.7736C8.79467 13.7736 9.41066 13.6253 9.864 13.3288C10.3173 13.0323 10.656 12.6226 10.88 12.0997C11.104 11.5768 11.2453 10.9569 11.304 10.2399C11.3627 9.52291 11.392 8.74394 11.392 7.90296C11.392 7.14824 11.368 6.42857 11.32 5.74394C11.272 5.0593 11.136 4.45553 10.912 3.93261C10.688 3.4097 10.3493 2.99461 9.896 2.68733C9.44266 2.38005 8.816 2.22642 8.016 2.22642C7.26933 2.22642 6.672 2.36927 6.224 2.65499C5.776 2.9407 5.432 3.34232 5.192 3.85984C4.952 4.37736 4.79467 4.99191 4.72 5.7035C4.64533 6.4151 4.608 7.19676 4.608 8.04852ZM2 8.04852C2 7.13207 2.184 6.30189 2.552 5.55795C2.92 4.81401 3.39466 4.1779 3.976 3.6496C4.55734 3.12129 5.20266 2.71429 5.912 2.42857C6.62134 2.14286 7.32266 2 8.016 2C8.752 2 9.48 2.14016 10.2 2.42049C10.92 2.70081 11.56 3.09973 12.12 3.61725C12.68 4.13477 13.1333 4.76549 13.48 5.50943C13.8267 6.25337 14 7.08355 14 8C14 8.80863 13.8373 9.57682 13.512 10.3046C13.1867 11.0323 12.7493 11.6712 12.2 12.221C11.6507 12.7709 11.016 13.2049 10.296 13.5229C9.576 13.841 8.816 14 8.016 14C7.22666 14 6.46934 13.8464 5.744 13.5391C5.01866 13.2318 4.37867 12.8113 3.824 12.2776C3.26933 11.7439 2.82667 11.1159 2.496 10.3935C2.16533 9.67116 2 8.88949 2 8.04852ZM8.16 7.06199C8.352 7.06199 8.54667 7.05391 8.744 7.03774C8.94133 7.02156 9.12267 6.96496 9.288 6.86792C9.45333 6.77089 9.59467 6.61995 9.712 6.41509C9.82933 6.21024 9.904 5.92453 9.936 5.55795H10.144V10.1671H9.936C9.904 9.85445 9.832 9.60377 9.72 9.41509C9.608 9.22641 9.47467 9.08356 9.32 8.98652C9.16533 8.88949 8.98933 8.8248 8.792 8.79245C8.59467 8.76011 8.38933 8.74394 8.176 8.74394H7.888C7.67467 8.74394 7.46933 8.76011 7.272 8.79245C7.07467 8.8248 6.89867 8.88949 6.744 8.98652C6.58933 9.08356 6.456 9.22641 6.344 9.41509C6.232 9.60377 6.16 9.85445 6.128 10.1671H5.92V5.55795H6.128C6.16 5.92453 6.23467 6.21024 6.352 6.41509C6.46933 6.61995 6.61067 6.77089 6.776 6.86792C6.94133 6.96496 7.12267 7.02156 7.32 7.03774C7.51733 7.05391 7.712 7.06199 7.904 7.06199H8.16Z" fill="#444444"/>
</svg>
